<svg width="26" height="23" viewBox="0 0 26 23" fill="none" xmlns="http://www.w3.org/2000/svg">
<path d="M23 3H19.535L17.8312 0.445C17.74 0.30819 17.6164 0.196004 17.4714 0.118382C17.3264 0.0407602 17.1645 9.87561e-05 17 0H9C8.83554 9.87561e-05 8.67363 0.0407602 8.52864 0.118382C8.38364 0.196004 8.26003 0.30819 8.16875 0.445L6.46375 3H3C2.20435 3 1.44129 3.31607 0.87868 3.87868C0.316071 4.44129 0 5.20435 0 6V20C0 20.7956 0.316071 21.5587 0.87868 22.1213C1.44129 22.6839 2.20435 23 3 23H23C23.7956 23 24.5587 22.6839 25.1213 22.1213C25.6839 21.5587 26 20.7956 26 20V6C26 5.20435 25.6839 4.44129 25.1213 3.87868C24.5587 3.31607 23.7956 3 23 3ZM24 20C24 20.2652 23.8946 20.5196 23.7071 20.7071C23.5196 20.8946 23.2652 21 23 21H3C2.73478 21 2.48043 20.8946 2.29289 20.7071C2.10536 20.5196 2 20.2652 2 20V6C2 5.73478 2.10536 5.48043 2.29289 5.29289C2.48043 5.10536 2.73478 5 3 5H7C7.16468 5.00011 7.32683 4.95954 7.47206 4.88191C7.61729 4.80428 7.7411 4.69199 7.8325 4.555L9.535 2H16.4638L18.1675 4.555C18.2589 4.69199 18.3827 4.80428 18.5279 4.88191C18.6732 4.95954 18.8353 5.00011 19 5H23C23.2652 5 23.5196 5.10536 23.7071 5.29289C23.8946 5.48043 24 5.73478 24 6V20ZM19 8V11C19 11.2652 18.8946 11.5196 18.7071 11.7071C18.5196 11.8946 18.2652 12 18 12H15C14.7348 12 14.4804 11.8946 14.2929 11.7071C14.1054 11.5196 14 11.2652 14 11C14 10.7348 14.1054 10.4804 14.2929 10.2929C14.4804 10.1054 14.7348 10 15 10H15.6437C14.953 9.39483 14.0757 9.04475 13.1581 9.00813C12.2405 8.9715 11.338 9.25056 10.6012 9.79875C10.3892 9.95821 10.1226 10.0269 9.8599 9.98977C9.59724 9.95261 9.36009 9.81263 9.20063 9.60063C9.04116 9.38862 8.97245 9.12195 9.00961 8.85928C9.04676 8.59661 9.18674 8.35946 9.39875 8.2C10.5104 7.37241 11.8733 6.95325 13.2578 7.01314C14.6424 7.07302 15.964 7.60828 17 8.52875V8C17 7.73478 17.1054 7.48043 17.2929 7.29289C17.4804 7.10536 17.7348 7 18 7C18.2652 7 18.5196 7.10536 18.7071 7.29289C18.8946 7.48043 19 7.73478 19 8ZM16.7987 15.4C16.9581 15.6119 17.0269 15.8784 16.9898 16.1409C16.9528 16.4034 16.813 16.6405 16.6012 16.8C15.4896 17.6276 14.1267 18.0467 12.7422 17.9869C11.3576 17.927 10.036 17.3917 9 16.4713V17C9 17.2652 8.89464 17.5196 8.70711 17.7071C8.51957 17.8946 8.26522 18 8 18C7.73478 18 7.48043 17.8946 7.29289 17.7071C7.10536 17.5196 7 17.2652 7 17V14C7 13.7348 7.10536 13.4804 7.29289 13.2929C7.48043 13.1054 7.73478 13 8 13H11C11.2652 13 11.5196 13.1054 11.7071 13.2929C11.8946 13.4804 12 13.7348 12 14C12 14.2652 11.8946 14.5196 11.7071 14.7071C11.5196 14.8946 11.2652 15 11 15H10.3562C11.047 15.6052 11.9243 15.9552 12.8419 15.9919C13.7595 16.0285 14.662 15.7494 15.3988 15.2013C15.6108 15.042 15.8774 14.9735 16.1399 15.0107C16.4024 15.048 16.6394 15.188 16.7987 15.4Z" fill="white"/>
</svg>
