<svg width="24" height="24" viewBox="0 0 24 24" fill="none" xmlns="http://www.w3.org/2000/svg">
<path d="M21.5151 10.5937L15.5676 8.43187L13.4058 2.48437C13.2992 2.1973 13.1073 1.94972 12.856 1.77489C12.6046 1.60006 12.3057 1.50635 11.9995 1.50635C11.6933 1.50635 11.3944 1.60006 11.1431 1.77489C10.8917 1.94972 10.6998 2.1973 10.5933 2.48437L8.43138 8.43187L2.48388 10.5937C2.19682 10.7003 1.94924 10.8922 1.7744 11.1435C1.59957 11.3949 1.50586 11.6938 1.50586 12C1.50586 12.3062 1.59957 12.6051 1.7744 12.8565C1.94924 13.1078 2.19682 13.2997 2.48388 13.4062L8.43138 15.5691L10.5933 21.5156C10.6998 21.8027 10.8917 22.0503 11.1431 22.2251C11.3944 22.3999 11.6933 22.4936 11.9995 22.4936C12.3057 22.4936 12.6046 22.3999 12.856 22.2251C13.1073 22.0503 13.2992 21.8027 13.4058 21.5156L15.5686 15.5681L21.5151 13.4062C21.8022 13.2997 22.0498 13.1078 22.2246 12.8565C22.3994 12.6051 22.4932 12.3062 22.4932 12C22.4932 11.6938 22.3994 11.3949 22.2246 11.1435C22.0498 10.8922 21.8022 10.7003 21.5151 10.5937ZM14.7258 14.2781C14.6229 14.3156 14.5295 14.3751 14.452 14.4525C14.3746 14.5299 14.3151 14.6234 14.2776 14.7262L11.9995 20.9906L9.72138 14.7262C9.68392 14.6234 9.62439 14.5299 9.54698 14.4525C9.46956 14.3751 9.37613 14.3156 9.27326 14.2781L3.00888 12L9.27326 9.72187C9.37613 9.68441 9.46956 9.62488 9.54698 9.54746C9.62439 9.47005 9.68392 9.37662 9.72138 9.27374L11.9995 3.00937L14.2776 9.27374C14.3151 9.37662 14.3746 9.47005 14.452 9.54746C14.5295 9.62488 14.6229 9.68441 14.7258 9.72187L20.9901 12L14.7258 14.2781Z" fill="#747474"/>
</svg>
