<svg width="18" height="23" viewBox="0 0 18 23" fill="none" xmlns="http://www.w3.org/2000/svg">
<path d="M17.25 17.8734V21.75C17.25 21.9489 17.171 22.1397 17.0303 22.2803C16.8897 22.421 16.6989 22.5 16.5 22.5C16.3011 22.5 16.1103 22.421 15.9697 22.2803C15.829 22.1397 15.75 21.9489 15.75 21.75V17.8734C15.7465 16.9108 15.5449 15.9591 15.1579 15.0777C14.7708 14.1963 14.2065 13.4039 13.5 12.75V18.2203C13.4999 18.3817 13.4477 18.5388 13.3512 18.6681C13.2546 18.7975 13.119 18.8923 12.9643 18.9384C12.8096 18.9845 12.6442 18.9795 12.4926 18.9241C12.341 18.8687 12.2113 18.7659 12.1228 18.6309L11.1216 17.1019C11.1141 17.0906 11.1066 17.0784 11.1 17.0662C10.9529 16.8065 10.7087 16.6159 10.4211 16.5363C10.1334 16.4566 9.82595 16.4945 9.56625 16.6416C9.30654 16.7886 9.1159 17.0328 9.03626 17.3205C8.95661 17.6081 8.99449 17.9156 9.14156 18.1753L11.2162 21.3431C11.3252 21.5096 11.3635 21.7125 11.3228 21.9072C11.2821 22.1019 11.1657 22.2725 10.9992 22.3814C10.8328 22.4903 10.6298 22.5286 10.4351 22.4879C10.2404 22.4472 10.0698 22.3308 9.96094 22.1644L7.87406 18.9769L7.85156 18.9412C7.52852 18.3876 7.41919 17.735 7.54419 17.1063C7.66919 16.4777 8.01989 15.9165 8.53014 15.5286C9.0404 15.1406 9.67495 14.9528 10.3141 15.0005C10.9533 15.0482 11.553 15.3281 12 15.7875V5.25H10.5C10.3011 5.25 10.1103 5.17098 9.96967 5.03033C9.82902 4.88968 9.75 4.69891 9.75 4.5C9.75 4.30109 9.82902 4.11032 9.96967 3.96967C10.1103 3.82902 10.3011 3.75 10.5 3.75H12C12.3978 3.75 12.7794 3.90803 13.0607 4.18934C13.342 4.47064 13.5 4.85217 13.5 5.25V10.8394C14.6512 11.6173 15.5946 12.6649 16.2482 13.8909C16.9018 15.1169 17.2458 16.4841 17.25 17.8734ZM3.75 4.5C3.75 4.30109 3.67098 4.11032 3.53033 3.96967C3.38968 3.82902 3.19891 3.75 3 3.75H1.5C1.10218 3.75 0.720644 3.90803 0.43934 4.18934C0.158035 4.47064 0 4.85217 0 5.25V18C0 18.1989 0.0790178 18.3897 0.21967 18.5303C0.360322 18.671 0.551088 18.75 0.75 18.75C0.948912 18.75 1.13968 18.671 1.28033 18.5303C1.42098 18.3897 1.5 18.1989 1.5 18V5.25H3C3.19891 5.25 3.38968 5.17098 3.53033 5.03033C3.67098 4.88968 3.75 4.69891 3.75 4.5ZM10.2806 8.46937C10.211 8.39964 10.1283 8.34432 10.0372 8.30658C9.94616 8.26884 9.84856 8.24941 9.75 8.24941C9.65144 8.24941 9.55384 8.26884 9.4628 8.30658C9.37175 8.34432 9.28903 8.39964 9.21937 8.46937L7.5 10.1897V0.75C7.5 0.551088 7.42098 0.360322 7.28033 0.21967C7.13968 0.0790176 6.94891 0 6.75 0C6.55109 0 6.36032 0.0790176 6.21967 0.21967C6.07902 0.360322 6 0.551088 6 0.75V10.1897L4.28063 8.46937C4.13989 8.32864 3.94902 8.24958 3.75 8.24958C3.55098 8.24958 3.36011 8.32864 3.21937 8.46937C3.07864 8.6101 2.99958 8.80098 2.99958 9C2.99958 9.19902 3.07864 9.38989 3.21937 9.53062L6.21937 12.5306C6.28903 12.6004 6.37175 12.6557 6.46279 12.6934C6.55384 12.7312 6.65144 12.7506 6.75 12.7506C6.84856 12.7506 6.94616 12.7312 7.03721 12.6934C7.12825 12.6557 7.21097 12.6004 7.28063 12.5306L10.2806 9.53062C10.3504 9.46097 10.4057 9.37825 10.4434 9.2872C10.4812 9.19616 10.5006 9.09856 10.5006 9C10.5006 8.90144 10.4812 8.80384 10.4434 8.71279C10.4057 8.62175 10.3504 8.53903 10.2806 8.46937Z" fill="white"/>
</svg>
